# xmcd CD database file
#
# Track frame offsets:
#	150
#	35552
#	117450
#	159807
#	188637
#	278562
#	288115
#
# Disc length: 4081 seconds
#
# Revision: 0
# Processed by: cddbd v1.5PL3 Copyright (c) Steve Scherf et al.
# Submitted via: cdripper 1.0.7
#
DISCID=550fef07
DTITLE=Michael Snow - Snow Solo Piano Solo Snow (3 Phases) - Piano Mecanique
DYEAR=2004
DGENRE=Jazz
TTITLE0=Entre Parenthèses
TTITLE1=Headline: Bird Mécanique Arabian Entendu
TTITLE2=Deux Solitudes
TTITLE3=Section Rhythmique
TTITLE4=Spéléologie à Venir
TTITLE5=Saguenay
TTITLE6=Edallab Indelibile
EXTD=YEAR: 2004
EXTT0=
EXTT1=
EXTT2=
EXTT3=
EXTT4=
EXTT5=
EXTT6=
PLAYORDER=
